REM DIRINDEX 1\4,1\5,1\2\6,1\2\7,1\3\8,1\3\9
REM DIRNAME folder01,folder02,folder03,folder04,folder05,folder06,folder07,folder08,folder09
TITLE ""
FILE "Disk1Track03.mp3" MP3
  TRACK 01 AUDIO
    TITLE "7:cjc068_067"
    INDEX 01 00:00:00
  TRACK 02 AUDIO
    TITLE "6:cjc068_068"
    INDEX 01 00:01:71
  TRACK 03 AUDIO
    TITLE "6:cjc068_069"
    INDEX 01 00:02:40
  TRACK 04 AUDIO
    TITLE "6:cjc068_070"
    INDEX 01 00:03:33
  TRACK 05 AUDIO
    TITLE "6:cjc068_071"
    INDEX 01 00:04:31
  TRACK 06 AUDIO
    TITLE "6:cjc068_072"
    INDEX 01 00:05:09
  TRACK 07 AUDIO
    TITLE "6:cjc068_073"
    INDEX 01 00:05:69
  TRACK 08 AUDIO
    TITLE "6:cjc068_074"
    INDEX 01 00:06:65
  TRACK 09 AUDIO
    TITLE "6:cjc068_075"
    INDEX 01 00:07:35
  TRACK 10 AUDIO
    TITLE "6:cjc068_076"
    INDEX 01 00:08:21
  TRACK 11 AUDIO
    TITLE "6:cjc068_077"
    INDEX 01 00:09:12
  TRACK 12 AUDIO
    TITLE "6:cjc068_078"
    INDEX 01 00:09:63
  TRACK 13 AUDIO
    TITLE "6:cjc068_079"
    INDEX 01 00:10:49
  TRACK 14 AUDIO
    TITLE "6:cjc068_080"
    INDEX 01 00:11:44
  TRACK 15 AUDIO
    TITLE "6:cjc068_081"
    INDEX 01 00:12:16
  TRACK 16 AUDIO
    TITLE "6:cjc068_082"
    INDEX 01 00:12:73
  TRACK 17 AUDIO
    TITLE "6:cjc068_083"
    INDEX 01 00:13:67
  TRACK 18 AUDIO
    TITLE "6:cjc068_084"
    INDEX 01 00:14:47
  TRACK 19 AUDIO
    TITLE "6:cjc068_085"
    INDEX 01 00:15:28
  TRACK 20 AUDIO
    TITLE "6:cjc068_086"
    INDEX 01 00:16:28
  TRACK 21 AUDIO
    TITLE "6:cjc068_087"
    INDEX 01 00:16:69
  TRACK 22 AUDIO
    TITLE "6:cjc068_088"
    INDEX 01 00:17:59
  TRACK 23 AUDIO
    TITLE "6:cjc068_089"
    INDEX 01 00:18:54
  TRACK 24 AUDIO
    TITLE "6:cjc068_090"
    INDEX 01 00:19:36
  TRACK 25 AUDIO
    TITLE "6:cjc068_091"
    INDEX 01 00:20:22
  TRACK 26 AUDIO
    TITLE "6:cjc068_092"
    INDEX 01 00:21:21
  TRACK 27 AUDIO
    TITLE "6:cjc068_093"
    INDEX 01 00:21:68
  TRACK 28 AUDIO
    TITLE "6:cjc068_094"
    INDEX 01 00:22:58
  TRACK 29 AUDIO
    TITLE "6:cjc068_095"
    INDEX 01 00:23:53
  TRACK 30 AUDIO
    TITLE "6:cjc068_096"
    INDEX 01 00:24:37
  TRACK 31 AUDIO
    TITLE "6:cjc068_097"
    INDEX 01 00:25:17
  TRACK 32 AUDIO
    TITLE "6:cjc068_098"
    INDEX 01 00:26:18
  TRACK 33 AUDIO
    TITLE "6:cjc068_099"
    INDEX 01 00:26:67
  TRACK 34 AUDIO
    TITLE "6:cjc068_100"
    INDEX 01 00:27:57
  TRACK 35 AUDIO
    TITLE "6:cjc068_101"
    INDEX 01 00:28:59
  TRACK 36 AUDIO
    TITLE "6:cjc068_102"
    INDEX 01 00:29:36
  TRACK 37 AUDIO
    TITLE "6:cjc068_103"
    INDEX 01 00:30:36
  TRACK 38 AUDIO
    TITLE "6:cjc068_104"
    INDEX 01 00:31:35
  TRACK 39 AUDIO
    TITLE "6:cjc068_105"
    INDEX 01 00:32:07
  TRACK 40 AUDIO
    TITLE "6:cjc068_106"
    INDEX 01 00:32:68
  TRACK 41 AUDIO
    TITLE "6:cjc068_107"
    INDEX 01 00:33:66
  TRACK 42 AUDIO
    TITLE "6:cjc068_108"
    INDEX 01 00:34:47
  TRACK 43 AUDIO
    TITLE "6:cjc068_109"
    INDEX 01 00:35:33
  TRACK 44 AUDIO
    TITLE "6:cjc068_110"
    INDEX 01 00:36:33
  TRACK 45 AUDIO
    TITLE "6:cjc068_111"
    INDEX 01 00:37:05
  TRACK 46 AUDIO
    TITLE "6:cjc068_112"
    INDEX 01 00:37:63
  TRACK 47 AUDIO
    TITLE "6:cjc068_113"
    INDEX 01 00:38:51
  TRACK 48 AUDIO
    TITLE "6:cjc068_114"
    INDEX 01 00:39:25
  TRACK 49 AUDIO
    TITLE "6:cjc068_115"
    INDEX 01 00:40:07
  TRACK 50 AUDIO
    TITLE "6:cjc068_116"
    INDEX 01 00:41:02
  TRACK 51 AUDIO
    TITLE "6:cjc068_117"
    INDEX 01 00:41:57
  TRACK 52 AUDIO
    TITLE "6:cjc068_118"
    INDEX 01 00:42:39
  TRACK 53 AUDIO
    TITLE "6:cjc068_119"
    INDEX 01 00:43:37
  TRACK 54 AUDIO
    TITLE "6:cjc068_120"
    INDEX 01 00:44:16
  TRACK 55 AUDIO
    TITLE "6:cjc068_121"
    INDEX 01 00:44:69
  TRACK 56 AUDIO
    TITLE "6:cjc068_122"
    INDEX 01 00:45:65
  TRACK 57 AUDIO
    TITLE "6:cjc068_123"
    INDEX 01 00:46:43
  TRACK 58 AUDIO
    TITLE "6:cjc068_124"
    INDEX 01 00:47:23
  TRACK 59 AUDIO
    TITLE "6:cjc068_125"
    INDEX 01 00:48:32
  TRACK 60 AUDIO
    TITLE "6:cjc068_126"
    INDEX 01 00:49:14
  TRACK 61 AUDIO
    TITLE "6:cjc068_127"
    INDEX 01 00:49:61
  TRACK 62 AUDIO
    TITLE "6:cjc068_128"
    INDEX 01 00:50:68
  TRACK 63 AUDIO
    TITLE "6:cjc068_129"
    INDEX 01 00:51:48
  TRACK 64 AUDIO
    TITLE "6:cjc068_130"
    INDEX 01 00:52:30
  TRACK 65 AUDIO
    TITLE "6:cjc068_131"
    INDEX 01 00:53:33
  TRACK 66 AUDIO
    TITLE "6:cjc068_132"
    INDEX 01 00:54:11
  TRACK 67 AUDIO
    TITLE "6:cjc068_133"
    INDEX 01 00:55:01
  TRACK 68 AUDIO
    TITLE "6:cjc068_134"
    INDEX 01 00:56:02
  TRACK 69 AUDIO
    TITLE "6:cjc068_135"
    INDEX 01 00:56:59
  TRACK 70 AUDIO
    TITLE "6:cjc068_136"
    INDEX 01 00:57:41
  TRACK 71 AUDIO
    TITLE "6:cjc068_137"
    INDEX 01 00:58:46
  TRACK 72 AUDIO
    TITLE "6:cjc068_138"
    INDEX 01 00:59:28
  TRACK 73 AUDIO
    TITLE "6:cjc068_139"
    INDEX 01 01:00:10
  TRACK 74 AUDIO
    TITLE "0:"
    INDEX 01 01:00:74
